HIERARCHY
ROOT Hips
{
	OFFSET -3.958830 18.904000 13.208200
	CHANNELS 6 Xposition Yposition Zposition Zrotation Yrotation Xrotation 
	JOINT LHipJoint
	{
		OFFSET 0.000000 0.000000 0.000000
		CHANNELS 3 Zrotation Yrotation Xrotation
		JOINT LeftUpLeg
		{
			OFFSET 1.800000 -1.400000 0.085000
			CHANNELS 3 Zrotation Yrotation Xrotation
			JOINT LeftLeg
			{
				OFFSET 2.215000 -6.000000 0.000000
				CHANNELS 3 Zrotation Yrotation Xrotation
				JOINT LeftFoot
				{
					OFFSET 2.500000 -6.900000 0.000000
					CHANNELS 3 Zrotation Yrotation Xrotation
					JOINT LeftToeBase
					{
						OFFSET 0.200000 -0.500000 1.950000
						CHANNELS 3 Zrotation Yrotation Xrotation
						End Site
						{
							OFFSET 0.000000 0.000000 0.000000
						}
					}
				}
			}
		}
	}
	JOINT RHipJoint
	{
		OFFSET 0.000000 0.000000 0.000000
		CHANNELS 3 Zrotation Yrotation Xrotation
		JOINT RightUpLeg
		{
			OFFSET -1.800000 -1.400000 0.085000
			CHANNELS 3 Zrotation Yrotation Xrotation
			JOINT RightLeg
			{
				OFFSET -2.215000 -6.000000 0.000000
				CHANNELS 3 Zrotation Yrotation Xrotation
				JOINT RightFoot
				{
					OFFSET -2.500000 -6.900000 0.000000
					CHANNELS 3 Zrotation Yrotation Xrotation
					JOINT RightToeBase
					{
						OFFSET -0.200000 -0.500000 1.950000
						CHANNELS 3 Zrotation Yrotation Xrotation
						End Site
						{
							OFFSET 0.000000 0.000000 0.000000
						}
					}
				}
			}
		}
	}
	JOINT LowerBack
	{
		OFFSET 0.000000 0.000000 0.000000
		CHANNELS 3 Zrotation Yrotation Xrotation
		JOINT Spine
		{
			OFFSET -0.087000 1.940000 -0.288900
			CHANNELS 3 Zrotation Yrotation Xrotation
			JOINT Spine1
			{
				OFFSET 0.000000 1.950000 0.060000
				CHANNELS 3 Zrotation Yrotation Xrotation
				JOINT Neck
				{
					OFFSET 0.000000 0.000000 0.000000
					CHANNELS 3 Zrotation Yrotation Xrotation
					JOINT Neck1
					{
						OFFSET 0.000000 1.600000 0.340000
						CHANNELS 3 Zrotation Yrotation Xrotation
						JOINT Head
						{
							OFFSET 0.000000 1.667000 -0.240000
							CHANNELS 3 Zrotation Yrotation Xrotation
							End Site
							{
								OFFSET 0.000000 0.000000 0.000000
							}
						}
					}
				}
				JOINT LeftShoulder
				{
					OFFSET 0.000000 0.000000 0.000000
					CHANNELS 3 Zrotation Yrotation Xrotation
					JOINT LeftArm
					{
						OFFSET 2.700000 1.550000 -0.730000
						CHANNELS 3 Zrotation Yrotation Xrotation
						JOINT LeftForeArm
						{
							OFFSET 5.450000 0.000000 0.000000
							CHANNELS 3 Zrotation Yrotation Xrotation
							JOINT LeftHand
							{
								OFFSET 3.450000 0.000000 0.000000
								CHANNELS 3 Zrotation Yrotation Xrotation
								JOINT LeftHandIndex1
								{
									OFFSET 0.750000 0.000000 0.000000
									CHANNELS 3 Zrotation Yrotation Xrotation
									End Site
									{
										OFFSET 0.000000 0.000000 0.000000
									}
								}
							}
						}
					}
				}
				JOINT RightShoulder
				{
					OFFSET 0.000000 0.000000 0.000000
					CHANNELS 3 Zrotation Yrotation Xrotation
					JOINT RightArm
					{
						OFFSET -2.700000 1.550000 -0.730000
						CHANNELS 3 Zrotation Yrotation Xrotation
						JOINT RightForeArm
						{
							OFFSET -5.450000 0.000000 0.000000
							CHANNELS 3 Zrotation Yrotation Xrotation
							JOINT RightHand
							{
								OFFSET -3.450000 0.000000 0.000000
								CHANNELS 3 Zrotation Yrotation Xrotation
								JOINT RightHandIndex1
								{
									OFFSET -0.750000 0.000000 0.000000
									CHANNELS 3 Zrotation Yrotation Xrotation
									End Site
									{
										OFFSET 0.000000 0.000000 0.000000
									}
								}
							}
						}
					}
				}
			}
		}
	}
}
MOTION
Frames: 9
Frame Time: 0.016667
-0.275900 17.897440 -0.101080 -12.115177 9.059465 -12.581593 -14.984082 13.345450 2.412994 21.934361 0.779358 -3.411474 -5.408891 7.342523 13.966190 -0.142295 5.806137 2.921255 -0.253000 -0.375290 -0.663850 18.305008 -11.661129 2.727694 -6.358233 -1.927499 2.702074 7.528275 -7.419554 16.547735 -0.432601 -5.431523 2.720135 -0.103700 1.052700 0.102470 -4.010397 -0.492655 -7.346534 2.780867 -0.511165 7.213865 -17.403750 4.502413 6.866633 5.924922 -9.110599 -15.326872 -15.775972 0.038529 26.882363 7.443510 -10.221220 0.551170 11.090516 -0.861692 6.722080 -12.680652 6.331481 -1.686391 145.359393 -8.598117 -37.702917 -4.100382 3.407900 0.197920 0.408170 -0.462220 0.334180 -21.745522 14.938579 9.302923 -25.525999 -1.897887 -12.325936 -96.299112 -37.221777 30.023183 3.541224 -1.838263 -0.424830 0.574340 0.441050 0.230940 
-0.293400 17.930070 -0.209770 -12.074047 10.876259 -13.032075 -15.052957 13.388373 2.341383 21.552665 1.037213 -4.181691 -4.625966 7.009128 13.414351 -0.172612 5.671900 3.000824 -0.375450 -0.468140 -0.781210 18.263023 -11.552356 2.718278 -6.606200 -1.735319 2.825349 8.067232 -7.420468 16.010271 -0.371482 -5.449281 2.748488 -0.134760 1.144800 0.049860 -3.894516 -0.766614 -7.269730 1.006727 -0.956660 9.708652 -18.308221 5.069936 9.587503 6.683520 -9.369872 -15.860888 -15.504981 -1.083896 24.567323 7.589810 -11.109600 0.895270 11.628053 -0.512039 6.795471 -14.324989 6.434162 -2.216073 146.422698 -8.466350 -42.314612 -4.165401 3.338141 0.150160 0.454930 -0.531630 0.319760 -23.393094 15.120112 10.984479 -27.081124 -2.319050 -11.671727 -81.603241 -45.770484 26.306627 4.285774 -1.588230 -0.482010 0.646550 0.511740 0.259390 
-0.309200 17.955920 -0.288160 -11.544143 12.387960 -12.512902 -15.205057 13.521659 2.268632 20.623230 1.242835 -5.564224 -4.184594 6.773972 13.083509 -0.220676 5.556398 3.042252 -0.422360 -0.551710 -0.793800 18.168897 -11.269594 2.633816 -7.012801 -1.437371 2.472630 8.560821 -7.260078 15.037816 -0.309831 -5.364076 2.769005 -0.170470 1.160060 0.056410 -3.563257 -1.501259 -7.009396 -1.384526 -0.644794 10.229407 -18.806365 6.634330 12.954900 7.408996 -9.634156 -16.035286 -15.014492 -3.769124 21.702178 7.134360 -12.889880 0.344600 13.329406 0.747727 7.315075 -16.422198 3.880619 -1.015873 147.428739 -9.583966 -50.489953 -4.246354 3.272604 0.133560 0.467680 -0.572200 0.288880 -26.120082 13.676335 11.547349 -27.435650 -2.950677 -10.429092 -59.503028 -49.831664 19.445657 6.182348 -0.709580 -0.494920 0.634820 0.549990 0.248980 
-0.312810 17.976280 -0.353520 -11.190605 14.183786 -10.311219 -15.298225 13.540655 2.309164 19.492983 1.145803 -8.424369 -4.372556 6.477516 12.218649 -0.316034 5.318036 3.112279 -0.507320 -0.678190 -0.824340 18.091378 -11.137344 2.575736 -7.160727 -0.829729 0.147585 9.292377 -7.148516 14.822131 -0.208764 -5.144785 2.847830 -0.232130 1.181190 0.043450 -3.345452 -1.752421 -6.934171 -2.868584 0.279465 9.370641 -19.252766 8.150971 13.413884 7.607611 -9.570784 -15.867540 -14.524494 -5.949723 21.746354 6.370480 -14.594210 0.844790 14.063382 0.328782 7.889713 -16.913452 1.861003 -0.038994 147.404563 -11.693697 -57.605284 -4.292721 3.166084 0.155220 0.479380 -0.603480 0.251260 -27.157972 13.556314 9.565079 -28.355261 -3.139394 -10.704197 -42.593333 -41.767626 12.074803 6.659903 -0.188983 -0.537890 0.653230 0.608590 0.226760 
-0.320140 17.983670 -0.421130 -10.701843 15.703695 -8.534941 -15.397048 13.581091 2.403116 18.495382 1.063949 -10.850354 -4.697873 6.284241 11.553894 -0.375912 5.082939 3.180835 -0.555430 -0.761550 -0.763650 17.973611 -11.056795 2.569538 -7.599300 -0.210518 -1.869787 10.017549 -7.052843 14.677504 -0.161443 -4.888438 2.931210 -0.295900 1.124280 -0.000470 -3.053848 -1.925674 -7.003386 -4.739857 1.106090 9.734169 -19.282982 9.342984 13.026453 8.039984 -9.383093 -15.988100 -14.051126 -8.501390 22.981732 5.462850 -16.076580 -0.397160 14.114851 -0.397634 7.992339 -16.156396 0.655207 0.293058 147.687261 -13.647768 -64.095932 -4.249380 3.025360 0.238850 0.424010 -0.561150 0.198560 -27.817882 14.656965 8.097833 -29.028484 -4.367711 -10.924259 -31.279954 -31.501109 6.191172 5.908481 -0.074468 -0.576420 0.693400 0.618160 0.180370 
-0.324890 17.976330 -0.493980 -10.783217 16.316886 -7.102907 -15.411146 13.533145 2.527326 18.296325 1.049450 -12.902926 -5.524960 6.336445 11.158064 -0.452083 5.033863 3.183186 -0.605640 -0.849380 -0.742390 17.942690 -11.010221 2.591660 -7.636167 0.432983 -3.703777 10.646854 -6.988936 14.886278 -0.126189 -4.685941 3.000125 -0.338250 1.113390 -0.050110 -2.995874 -1.925596 -7.154692 -4.762651 1.152844 10.318880 -20.264253 9.622871 12.555537 8.203992 -9.778998 -16.267861 -15.109134 -9.198390 24.523877 6.491350 -17.178370 -2.241580 14.405146 -0.136771 7.688461 -15.925544 0.474547 -0.145860 146.894808 -15.445238 -68.175315 -4.219830 2.906112 0.340500 0.376340 -0.539830 0.164450 -28.253590 15.765661 6.838305 -29.928872 -3.155174 -10.151765 -23.579750 -23.264126 2.846611 4.792537 0.019076 -0.648790 0.766840 0.652120 0.140220 
-0.331610 17.952190 -0.581010 -10.864909 17.438341 -6.598623 -15.445661 13.465161 2.639590 18.374123 1.202551 -14.333189 -6.587106 6.501391 10.858045 -0.456781 5.060082 3.135540 -0.611140 -0.854560 -0.744550 17.908323 -10.939793 2.593182 -7.844830 0.991941 -4.703513 11.286040 -6.988912 15.225311 -0.116655 -4.636531 2.997918 -0.345600 1.097490 -0.044430 -2.909468 -1.909263 -7.246975 -5.457833 1.538381 11.654056 -19.829025 10.323375 13.222220 8.029014 -9.261542 -16.209919 -14.724622 -9.450652 26.074203 7.447010 -17.872370 -3.011240 13.956250 -0.622932 7.296963 -14.901313 -0.596611 -0.247980 146.608138 -16.962333 -72.294311 -4.203934 2.893695 0.357070 0.360580 -0.524240 0.146080 -27.543192 16.621823 6.515011 -30.889312 -1.879965 -8.772279 -20.030393 -17.421824 1.359320 4.006356 -0.061975 -0.640330 0.763700 0.669880 0.136450 
-0.337510 17.930640 -0.688490 -11.332666 18.995315 -8.005264 -15.471999 13.447398 2.618379 18.625494 1.615983 -14.904554 -6.812716 6.728915 11.785378 -0.481651 5.158083 3.043714 -0.533500 -0.784260 -0.718060 17.885411 -10.922514 2.635693 -8.035317 1.290861 -3.719883 12.104856 -7.162052 15.386291 -0.178087 -4.827226 2.902345 -0.298010 1.065950 0.013930 -2.867407 -1.828039 -7.291515 -5.990321 1.658243 15.057566 -18.375276 10.940238 14.953174 8.045842 -8.702973 -15.576304 -13.850685 -8.683781 26.805985 8.503990 -17.254000 -4.689570 12.442591 -1.970577 7.005651 -14.011415 -1.385986 -0.596065 147.247322 -16.837460 -75.036748 -4.167826 2.990535 0.370820 0.354210 -0.505900 0.149120 -26.325715 17.664318 6.174926 -32.335270 -0.480608 -8.592007 -19.836199 -13.271453 0.585439 3.574694 -0.302402 -0.600350 0.710930 0.666140 0.123510 
-0.349920 17.913000 -0.786300 -11.488715 19.657651 -9.432491 -15.512050 13.490248 2.572529 18.884580 2.166724 -15.319339 -6.999627 7.136983 13.225724 -0.511386 5.399315 2.946035 -0.522080 -0.782570 -0.732340 17.854107 -10.872872 2.651314 -8.375612 1.593127 -2.702602 12.669409 -7.250761 15.503229 -0.206620 -5.001965 2.815045 -0.263030 1.120450 0.051490 -2.771005 -1.890084 -7.266519 -6.744265 2.107942 18.213547 -16.679606 11.734839 16.547885 8.135514 -8.933186 -14.897751 -13.797845 -8.333815 26.068592 8.715970 -16.885960 -6.023770 11.370139 -2.767136 6.626716 -13.715421 -2.322058 -1.009688 147.301652 -17.052945 -77.667920 -4.192680 3.021739 0.367440 0.382190 -0.526850 0.156860 -25.585528 19.040166 5.607655 -33.629002 1.361889 -9.280151 -20.663486 -9.150125 -0.134420 3.285080 -0.535213 -0.617770 0.737820 0.704290 0.129940 
